<svg width="24" height="24" viewBox="0 0 24 24" fill="none" xmlns="http://www.w3.org/2000/svg">
<path fill-rule="evenodd" clip-rule="evenodd" d="M3 3.3581C2 4.54202 2 6.42266 2 10V14C2 17.7712 2 19.6569 3.17157 20.8284C4.34315 22 6.22876 22 10 22H14C17.7712 22 19.6569 22 20.8284 20.8284C22 19.6569 22 17.7712 22 14V14V10C22 6.42266 22 4.54202 21 3.3581V17C20.0396 17 19.1185 16.6185 18.4393 15.9393L17.6877 15.1877C16.9664 14.4664 16.6057 14.1057 16.1968 13.9537C15.7473 13.7867 15.2527 13.7867 14.8032 13.9537C14.3943 14.1057 14.0336 14.4664 13.3123 15.1877L13.1992 15.3008C12.6138 15.8862 12.3212 16.1788 12.0102 16.2334C11.7685 16.2758 11.5197 16.2279 11.311 16.0988C11.0425 15.9326 10.8795 15.5522 10.5534 14.7913L10.5 14.6667C9.75036 12.9175 9.37554 12.0429 8.72167 11.7151C8.39249 11.5501 8.02413 11.4792 7.6572 11.5101C6.92836 11.5716 6.25554 12.2445 4.90989 13.5901L3 15.5V3.3581ZM9.79972 2.00001H14.2003C14.1341 2 14.0674 2 14 2H10C9.93264 2 9.86589 2 9.79972 2.00001Z" fill="#222222"/>
<path d="M2.5 10C2.5 8.10025 2.50106 6.72573 2.64199 5.67754C2.78098 4.64373 3.04772 4.00253 3.52513 3.52513C4.00253 3.04772 4.64373 2.78098 5.67754 2.64199C6.72573 2.50106 8.10025 2.5 10 2.5H14C15.8998 2.5 17.2743 2.50106 18.3225 2.64199C19.3563 2.78098 19.9975 3.04772 20.4749 3.52513C20.9523 4.00253 21.219 4.64373 21.358 5.67754C21.4989 6.72573 21.5 8.10025 21.5 10V14C21.5 15.8998 21.4989 17.2743 21.358 18.3225C21.219 19.3563 20.9523 19.9975 20.4749 20.4749C19.9975 20.9523 19.3563 21.219 18.3225 21.358C17.2743 21.4989 15.8998 21.5 14 21.5H10C8.10025 21.5 6.72573 21.4989 5.67754 21.358C4.64372 21.219 4.00253 20.9523 3.52513 20.4749C3.04772 19.9975 2.78098 19.3563 2.64199 18.3225C2.50106 17.2743 2.5 15.8998 2.5 14V10Z" stroke="#222222"/>
<circle cx="15" cy="9" r="1.5" stroke="#222222" stroke-linecap="round"/>
</svg>
